# xmcd
#
# Track frame offsets:
#	225
#	16037
#	31679
#	47321
#	60507
#	78484
#	94225
#	107236
#	125403
#	140376
#	156535
#	170331
#
# Disc length: 2471 seconds
#
# Revision: 0
# Processed by: cddbd v1.5.1PL0 Copyright (c) Steve Scherf et al.
# Submitted via: dBpowerAMP V4.0
#
DISCID=8f09a40c
DTITLE=Blue Orchid - Slow Down For A While
DYEAR=1900
DGENRE=
TTITLE0=Hey You With The Hat On
TTITLE1=Given Time
TTITLE2=Slow Down For A While
TTITLE3=You Won't
TTITLE4=Face To Face
TTITLE5=I Should Be Telling You
TTITLE6=Crying Game
TTITLE7=Two Hearts Dancing As One
TTITLE8=Eat At Joe's
TTITLE9=If It Wasn't For The Rain
TTITLE10=Leading Me To You
TTITLE11=The Big Picture
EXTD=
EXTT0=
EXTT1=
EXTT2=
EXTT3=
EXTT4=
EXTT5=
EXTT6=
EXTT7=
EXTT8=
EXTT9=
EXTT10=
EXTT11=
PLAYORDER=
